# xmcd
#
# Track frame offsets: 
#        150
#        17111
#        35109
#        60271
#        77845
#        99743
#        126242
#        142753
#        174289
#        188225
#        204087
#        226885
#        245713
#        264863
#        285449
#        301297
#        313795
#        330118
#
# Disc length: 4490 seconds
#
# Revision: 0
# Processed by: cddbd v1.5.2PL0 Copyright (c) Steve Scherf et al.
# Submitted via: ExactAudioCopy v0.95b3
#
DISCID=e7118812
DTITLE=Mott The Hoople  - The Best of the Island Years- 1969-1972 - 32
DTITLE=0k
DYEAR=1900
DGENRE=
TTITLE0=Rock 'n' Roll Queen
TTITLE1=You Really Got Me \\ Wrath And Wroll (Crossfades)
TTITLE2=At The Crossroads
TTITLE3=Walkin' With A Mountain
TTITLE4=Thunderbuck Ram
TTITLE5=No Wheels To Ride
TTITLE6=Whiskey Women
TTITLE7=Keep A 'Knockin'
TTITLE8=Waterlow
TTITLE9=Midnight Lady
TTITLE10=The Moon Upstairs
TTITLE11=Death May Be Your Santa Claus
TTITLE12=Your Own Backyard
TTITLE13=Darkness Darkness
TTITLE14=Road To Birmingham
TTITLE15=Growing Man Blues
TTITLE16=Black Scorpio (Momma's Little Jewel)
TTITLE17=Black Hills
EXTD=
EXTT0=
EXTT1=
EXTT2=
EXTT3=
EXTT4=
EXTT5=
EXTT6=
EXTT7=
EXTT8=
EXTT9=
EXTT10=
EXTT11=
EXTT12=
EXTT13=
EXTT14=
EXTT15=
EXTT16=
EXTT17=
PLAYORDER=
